<?xml version="1.0" encoding="UTF-8" standalone="no"?>
<!-- Created with Inkscape (http://www.inkscape.org/) -->

<svg
   width="210mm"
   height="297mm"
   viewBox="0 0 210 297"
   version="1.1"
   id="svg5"
   xml:space="preserve"
   inkscape:version="1.2.2 (b0a84865, 2022-12-01)"
   sodipodi:docname="aviator sunglasses.svg"
   xmlns:inkscape="http://www.inkscape.org/namespaces/inkscape"
   xmlns:sodipodi="http://sodipodi.sourceforge.net/DTD/sodipodi-0.dtd"
   xmlns="http://www.w3.org/2000/svg"
   xmlns:svg="http://www.w3.org/2000/svg"><sodipodi:namedview
     id="namedview7"
     pagecolor="#ffffff"
     bordercolor="#666666"
     borderopacity="1.0"
     inkscape:showpageshadow="2"
     inkscape:pageopacity="0.0"
     inkscape:pagecheckerboard="0"
     inkscape:deskcolor="#d1d1d1"
     inkscape:document-units="mm"
     showgrid="false"
     inkscape:zoom="0.25007758"
     inkscape:cx="-67.978905"
     inkscape:cy="533.83434"
     inkscape:window-width="1179"
     inkscape:window-height="541"
     inkscape:window-x="0"
     inkscape:window-y="37"
     inkscape:window-maximized="0"
     inkscape:current-layer="layer1" /><defs
     id="defs2" /><g
     inkscape:label="Layer 1"
     inkscape:groupmode="layer"
     id="layer1"><path
       id="path302"
       style="fill:#000000;stroke-width:0.122532"
       d="m 65.218394,86.819245 c -1.582454,0.05434 -3.167223,0.0088 -4.749088,0.09958 -4.677355,0.211425 -9.34422,0.85108 -13.881914,2.014101 -3.613369,0.96748 -7.14261,2.614138 -9.78911,5.315242 -2.688217,2.715898 -4.440299,6.312982 -5.021999,10.081792 -0.117372,0.31703 -0.509363,0.1442 -0.769861,0.18818 -1.795933,0 -3.591874,0 -5.387807,0 0,1.68912 0,3.37824 0,5.06736 1.888875,0 3.777737,0 5.666613,0 -0.186832,3.30052 -0.07769,6.62314 0.379127,9.89818 0.638665,4.398 2.153386,8.76357 4.955804,12.26323 1.185177,1.47358 2.530602,2.81752 3.968635,4.04362 2.369291,1.95102 5.181169,3.31888 8.102666,4.22418 2.384544,0.70692 4.882045,1.16888 7.376959,0.96645 3.541352,-0.25125 6.943716,-1.474 10.101997,-3.04224 5.124147,-2.59751 9.587435,-6.34271 13.472788,-10.54375 3.353645,-3.63232 6.149767,-7.74383 8.611724,-12.02068 1.439829,-2.58772 2.83873,-5.23012 3.718333,-8.06891 0.408255,-1.34959 0.666829,-2.74254 0.808336,-4.14462 0.115738,-0.46668 0.186721,-1.00583 0.736226,-1.15308 1.686644,-1.036 3.463067,-2.01003 5.412548,-2.436183 1.546169,-0.268711 3.028999,0.405735 4.400479,1.032933 1.11201,0.53296 2.16922,1.17227 3.20135,1.84507 0.17352,2.43442 0.71427,4.84614 1.68413,7.08974 1.14473,2.7126 2.57573,5.29528 4.07604,7.82493 3.46398,5.76917 7.84882,10.99532 13.0082,15.32157 4.55409,3.82405 9.9207,6.83552 15.78957,8.01858 3.74777,0.75464 7.64836,0.0944 11.19395,-1.22104 2.12751,-0.83103 4.15792,-1.93209 5.99081,-3.29617 1.91393,-1.49939 3.62541,-3.26263 5.07451,-5.21421 2.74382,-3.81488 4.1763,-8.44989 4.56346,-13.10345 0.22662,-2.52902 0.29339,-5.07293 0.22781,-7.61068 -0.004,-0.33029 -0.17419,-0.81108 0.31219,-0.67347 1.76522,0 3.53044,0 5.29566,0 0,-1.68912 0,-3.37824 0,-5.06736 -2.02656,0 -4.05312,0 -6.07968,0 -0.42256,-2.37454 -1.19284,-4.699554 -2.42696,-6.779757 -1.71404,-2.958933 -4.3009,-5.399909 -7.36554,-6.920382 -2.36275,-1.182571 -4.93908,-1.852986 -7.50169,-2.445268 -5.14389,-1.117078 -10.41726,-1.541542 -15.6745,-1.553109 -4.79715,-0.0044 -9.59432,0.0093 -14.3915,4.5e-5 -18.36342,-0.0013 -36.726853,0.0012 -55.090266,-4.23e-4 z m 16.832084,2.568141 c 11.779643,0 23.559282,0 35.338922,0 -1.92293,0.721964 -3.89375,1.462195 -5.51892,2.750218 -1.74154,1.704274 -3.6008,3.40417 -4.6752,5.632514 -0.39687,0.87068 -0.63549,1.814738 -0.68679,2.770772 -1.86709,-1.131434 -3.84844,-2.182897 -6.01818,-2.571937 -1.729053,-0.235343 -3.42817,0.398207 -4.971905,1.111836 -0.878957,0.420547 -1.722911,0.909425 -2.55853,1.409361 -0.501637,-3.238798 -2.52401,-6.082117 -5.061789,-8.078968 -1.736933,-1.376434 -3.768924,-2.294583 -5.847608,-3.023796 z"
       sodipodi:nodetypes="ccccccccccccccccccccccccccccccccccccccccccccccccccccccc"
       inkscape:export-filename="aviators.png"
       inkscape:export-xdpi="96"
       inkscape:export-ydpi="96" /></g></svg>
